# Llave low-poly: argolla + vastago + 2 dientes, ~1.4 de alto, centrada en el origen
o llave
v 0.2800 0.4500 -0.0600
v 0.1980 0.6480 -0.0600
v 0.0000 0.7300 -0.0600
v -0.1980 0.6480 -0.0600
v -0.2800 0.4500 -0.0600
v -0.1980 0.2520 -0.0600
v -0.0000 0.1700 -0.0600
v 0.1980 0.2520 -0.0600
v 0.2800 0.4500 0.0600
v 0.1980 0.6480 0.0600
v 0.0000 0.7300 0.0600
v -0.1980 0.6480 0.0600
v -0.2800 0.4500 0.0600
v -0.1980 0.2520 0.0600
v -0.0000 0.1700 0.0600
v 0.1980 0.2520 0.0600
v 0.1200 0.4500 -0.0600
v 0.0849 0.5349 -0.0600
v 0.0000 0.5700 -0.0600
v -0.0849 0.5349 -0.0600
v -0.1200 0.4500 -0.0600
v -0.0849 0.3651 -0.0600
v -0.0000 0.3300 -0.0600
v 0.0849 0.3651 -0.0600
v 0.1200 0.4500 0.0600
v 0.0849 0.5349 0.0600
v 0.0000 0.5700 0.0600
v -0.0849 0.5349 0.0600
v -0.1200 0.4500 0.0600
v -0.0849 0.3651 0.0600
v -0.0000 0.3300 0.0600
v 0.0849 0.3651 0.0600
v -0.0600 -0.6500 -0.0600
v 0.0600 -0.6500 -0.0600
v 0.0600 0.2000 -0.0600
v -0.0600 0.2000 -0.0600
v -0.0600 -0.6500 0.0600
v 0.0600 -0.6500 0.0600
v 0.0600 0.2000 0.0600
v -0.0600 0.2000 0.0600
v 0.0600 -0.6500 -0.0600
v 0.2600 -0.6500 -0.0600
v 0.2600 -0.5000 -0.0600
v 0.0600 -0.5000 -0.0600
v 0.0600 -0.6500 0.0600
v 0.2600 -0.6500 0.0600
v 0.2600 -0.5000 0.0600
v 0.0600 -0.5000 0.0600
v 0.0600 -0.3800 -0.0600
v 0.2000 -0.3800 -0.0600
v 0.2000 -0.2500 -0.0600
v 0.0600 -0.2500 -0.0600
v 0.0600 -0.3800 0.0600
v 0.2000 -0.3800 0.0600
v 0.2000 -0.2500 0.0600
v 0.0600 -0.2500 0.0600
vt 0.5 0.5
vn 0.9239 0.3827 0.0000
vn 0.9239 0.3827 -0.0000
vn -0.9239 -0.3827 -0.0000
vn -0.9239 -0.3827 0.0000
vn -0.0000 -0.0000 -1.0000
vn -0.0000 -0.0000 -1.0000
vn 0.0000 0.0000 1.0000
vn 0.0000 0.0000 1.0000
vn 0.3827 0.9239 0.0000
vn 0.3827 0.9239 -0.0000
vn -0.3827 -0.9239 -0.0000
vn -0.3827 -0.9239 0.0000
vn -0.0000 -0.0000 -1.0000
vn -0.0000 -0.0000 -1.0000
vn 0.0000 0.0000 1.0000
vn 0.0000 0.0000 1.0000
vn -0.3827 0.9239 0.0000
vn -0.3827 0.9239 0.0000
vn 0.3827 -0.9239 -0.0000
vn 0.3827 -0.9239 -0.0000
vn -0.0000 -0.0000 -1.0000
vn -0.0000 -0.0000 -1.0000
vn 0.0000 0.0000 1.0000
vn 0.0000 0.0000 1.0000
vn -0.9239 0.3827 0.0000
vn -0.9239 0.3827 0.0000
vn 0.9239 -0.3827 -0.0000
vn 0.9239 -0.3827 -0.0000
vn -0.0000 -0.0000 -1.0000
vn -0.0000 -0.0000 -1.0000
vn 0.0000 0.0000 1.0000
vn 0.0000 0.0000 1.0000
vn -0.9239 -0.3827 0.0000
vn -0.9239 -0.3827 0.0000
vn 0.9239 0.3827 -0.0000
vn 0.9239 0.3827 -0.0000
vn -0.0000 -0.0000 -1.0000
vn -0.0000 -0.0000 -1.0000
vn 0.0000 0.0000 1.0000
vn 0.0000 0.0000 1.0000
vn -0.3827 -0.9239 0.0000
vn -0.3827 -0.9239 0.0000
vn 0.3827 0.9239 -0.0000
vn 0.3827 0.9239 -0.0000
vn 0.0000 -0.0000 -1.0000
vn -0.0000 -0.0000 -1.0000
vn -0.0000 0.0000 1.0000
vn 0.0000 0.0000 1.0000
vn 0.3827 -0.9239 0.0000
vn 0.3827 -0.9239 0.0000
vn -0.3827 0.9239 -0.0000
vn -0.3827 0.9239 -0.0000
vn -0.0000 -0.0000 -1.0000
vn -0.0000 -0.0000 -1.0000
vn 0.0000 0.0000 1.0000
vn 0.0000 0.0000 1.0000
vn 0.9239 -0.3827 0.0000
vn 0.9239 -0.3827 0.0000
vn -0.9239 0.3827 -0.0000
vn -0.9239 0.3827 -0.0000
vn -0.0000 0.0000 -1.0000
vn -0.0000 -0.0000 -1.0000
vn 0.0000 -0.0000 1.0000
vn 0.0000 0.0000 1.0000
vn -0.0000 -0.0000 -1.0000
vn -0.0000 -0.0000 -1.0000
vn 0.0000 0.0000 1.0000
vn 0.0000 0.0000 1.0000
vn -1.0000 0.0000 0.0000
vn -1.0000 0.0000 0.0000
vn 1.0000 -0.0000 -0.0000
vn 1.0000 -0.0000 -0.0000
vn -0.0000 1.0000 -0.0000
vn -0.0000 1.0000 -0.0000
vn 0.0000 -1.0000 0.0000
vn 0.0000 -1.0000 0.0000
vn -0.0000 -0.0000 -1.0000
vn -0.0000 -0.0000 -1.0000
vn 0.0000 0.0000 1.0000
vn 0.0000 0.0000 1.0000
vn -1.0000 0.0000 0.0000
vn -1.0000 0.0000 0.0000
vn 1.0000 -0.0000 -0.0000
vn 1.0000 -0.0000 -0.0000
vn -0.0000 1.0000 -0.0000
vn -0.0000 1.0000 -0.0000
vn 0.0000 -1.0000 0.0000
vn 0.0000 -1.0000 0.0000
vn -0.0000 -0.0000 -1.0000
vn -0.0000 -0.0000 -1.0000
vn 0.0000 0.0000 1.0000
vn 0.0000 0.0000 1.0000
vn -1.0000 0.0000 0.0000
vn -1.0000 0.0000 0.0000
vn 1.0000 -0.0000 -0.0000
vn 1.0000 -0.0000 -0.0000
vn -0.0000 1.0000 -0.0000
vn -0.0000 1.0000 -0.0000
vn 0.0000 -1.0000 0.0000
vn 0.0000 -1.0000 0.0000
f 1/1/1 2/1/1 10/1/1
f 1/1/2 10/1/2 9/1/2
f 17/1/3 26/1/3 18/1/3
f 17/1/4 25/1/4 26/1/4
f 1/1/5 18/1/5 2/1/5
f 1/1/6 17/1/6 18/1/6
f 9/1/7 10/1/7 26/1/7
f 9/1/8 26/1/8 25/1/8
f 2/1/9 3/1/9 11/1/9
f 2/1/10 11/1/10 10/1/10
f 18/1/11 27/1/11 19/1/11
f 18/1/12 26/1/12 27/1/12
f 2/1/13 19/1/13 3/1/13
f 2/1/14 18/1/14 19/1/14
f 10/1/15 11/1/15 27/1/15
f 10/1/16 27/1/16 26/1/16
f 3/1/17 4/1/17 12/1/17
f 3/1/18 12/1/18 11/1/18
f 19/1/19 28/1/19 20/1/19
f 19/1/20 27/1/20 28/1/20
f 3/1/21 20/1/21 4/1/21
f 3/1/22 19/1/22 20/1/22
f 11/1/23 12/1/23 28/1/23
f 11/1/24 28/1/24 27/1/24
f 4/1/25 5/1/25 13/1/25
f 4/1/26 13/1/26 12/1/26
f 20/1/27 29/1/27 21/1/27
f 20/1/28 28/1/28 29/1/28
f 4/1/29 21/1/29 5/1/29
f 4/1/30 20/1/30 21/1/30
f 12/1/31 13/1/31 29/1/31
f 12/1/32 29/1/32 28/1/32
f 5/1/33 6/1/33 14/1/33
f 5/1/34 14/1/34 13/1/34
f 21/1/35 30/1/35 22/1/35
f 21/1/36 29/1/36 30/1/36
f 5/1/37 22/1/37 6/1/37
f 5/1/38 21/1/38 22/1/38
f 13/1/39 14/1/39 30/1/39
f 13/1/40 30/1/40 29/1/40
f 6/1/41 7/1/41 15/1/41
f 6/1/42 15/1/42 14/1/42
f 22/1/43 31/1/43 23/1/43
f 22/1/44 30/1/44 31/1/44
f 6/1/45 23/1/45 7/1/45
f 6/1/46 22/1/46 23/1/46
f 14/1/47 15/1/47 31/1/47
f 14/1/48 31/1/48 30/1/48
f 7/1/49 8/1/49 16/1/49
f 7/1/50 16/1/50 15/1/50
f 23/1/51 32/1/51 24/1/51
f 23/1/52 31/1/52 32/1/52
f 7/1/53 24/1/53 8/1/53
f 7/1/54 23/1/54 24/1/54
f 15/1/55 16/1/55 32/1/55
f 15/1/56 32/1/56 31/1/56
f 8/1/57 1/1/57 9/1/57
f 8/1/58 9/1/58 16/1/58
f 24/1/59 25/1/59 17/1/59
f 24/1/60 32/1/60 25/1/60
f 8/1/61 17/1/61 1/1/61
f 8/1/62 24/1/62 17/1/62
f 16/1/63 9/1/63 25/1/63
f 16/1/64 25/1/64 32/1/64
f 33/1/65 35/1/65 34/1/65
f 33/1/66 36/1/66 35/1/66
f 37/1/67 38/1/67 39/1/67
f 37/1/68 39/1/68 40/1/68
f 33/1/69 37/1/69 40/1/69
f 33/1/70 40/1/70 36/1/70
f 34/1/71 39/1/71 38/1/71
f 34/1/72 35/1/72 39/1/72
f 36/1/73 39/1/73 35/1/73
f 36/1/74 40/1/74 39/1/74
f 33/1/75 34/1/75 38/1/75
f 33/1/76 38/1/76 37/1/76
f 41/1/77 43/1/77 42/1/77
f 41/1/78 44/1/78 43/1/78
f 45/1/79 46/1/79 47/1/79
f 45/1/80 47/1/80 48/1/80
f 41/1/81 45/1/81 48/1/81
f 41/1/82 48/1/82 44/1/82
f 42/1/83 47/1/83 46/1/83
f 42/1/84 43/1/84 47/1/84
f 44/1/85 47/1/85 43/1/85
f 44/1/86 48/1/86 47/1/86
f 41/1/87 42/1/87 46/1/87
f 41/1/88 46/1/88 45/1/88
f 49/1/89 51/1/89 50/1/89
f 49/1/90 52/1/90 51/1/90
f 53/1/91 54/1/91 55/1/91
f 53/1/92 55/1/92 56/1/92
f 49/1/93 53/1/93 56/1/93
f 49/1/94 56/1/94 52/1/94
f 50/1/95 55/1/95 54/1/95
f 50/1/96 51/1/96 55/1/96
f 52/1/97 55/1/97 51/1/97
f 52/1/98 56/1/98 55/1/98
f 49/1/99 50/1/99 54/1/99
f 49/1/100 54/1/100 53/1/100
