# Blender 5.2.2 LTS
# www.blender.org
mtllib Low Poly Shark Model.mtl
o Cube
v -0.231637 0.431579 0.175995
v -0.203478 0.042722 0.207338
v 0.114463 0.042509 0.226652
v 0.225722 0.439436 0.175923
v -0.431794 0.402571 0.162907
v -0.431794 0.048033 0.192801
v 0.446219 0.076781 0.182952
v 0.446219 0.402897 0.147337
v 0.698047 0.112254 0.146453
v 0.698047 0.352854 0.108574
v 0.985391 0.150323 0.106629
v 0.985391 0.325284 0.091174
v 1.290491 0.192295 0.071387
v 1.290491 0.299291 0.079646
v 1.476134 0.195302 0.058681
v 1.476134 0.294448 0.070110
v -0.693768 0.067275 0.113261
v -0.690080 0.338271 0.140447
v -0.903122 0.171322 0.056486
v -0.946752 0.273302 0.047549
v -0.977511 0.214004 0.018563
v -0.976138 0.263363 0.026512
v 1.559277 0.161756 0.058314
v 1.559277 0.317617 0.058314
v 1.772274 -0.085992 0.023461
v 1.772274 0.482409 0.023461
v 1.801421 -0.107068 0.021386
v 1.809492 0.510032 0.021386
v 1.799220 0.047851 0.021386
v 1.772274 0.215335 0.030572
v 2.005862 0.606756 0.009716
v 1.814335 0.367068 0.021386
v -0.431794 0.209503 0.233396
v -0.231637 0.229719 0.252189
v 0.176682 0.244498 0.250260
v 0.446219 0.262242 0.225809
v 0.698047 0.264663 0.180397
v 0.985391 0.258206 0.138228
v 1.290491 0.249328 0.100601
v 1.476134 0.245292 0.070110
v -0.678180 0.203362 0.202913
v -0.952210 0.232315 0.060294
v -0.984275 0.236690 0.029099
v 1.559277 0.239687 0.065426
v 1.944519 0.476706 0.015303
v 1.950389 -0.159620 0.015303
v 1.922699 -0.177610 0.017154
v -0.818416 0.315968 0.124736
v -0.834855 0.142710 0.127567
v -0.818416 0.226324 0.149535
v 0.000000 0.038056 0.226136
v 0.000000 0.447290 0.177179
v 0.000000 0.236106 0.253998
v -0.203478 0.094103 0.219248
v 0.114463 0.110222 0.241858
v 0.446219 0.164823 0.201520
v 0.698047 0.189673 0.171271
v 0.985391 0.199014 0.133848
v 1.290491 0.215561 0.097413
v 1.476134 0.220714 0.070110
v -0.431794 0.121428 0.211253
v -0.683482 0.136851 0.187311
v -0.946752 0.205782 0.055905
v -0.981767 0.222531 0.028518
v -0.827505 0.172350 0.138551
v -0.761341 0.140271 0.157439
v 0.000000 0.136124 0.230536
v -0.003142 -0.084827 0.570536
v 0.168412 -0.092691 0.640063
v -0.125199 -0.010831 0.468641
v -0.131751 -0.044065 0.471014
v 0.175428 -0.066983 0.637546
v 0.006206 -0.054407 0.567115
v -0.168514 0.043583 0.348650
v 0.003103 0.034562 0.458147
v 0.079503 0.031565 0.437101
v 0.081533 -0.001091 0.440173
v 0.003103 -0.017306 0.434684
v -0.182615 0.000517 0.353756
v 0.056311 0.535429 0.038202
v 0.225284 0.528213 0.046562
v 0.207575 0.649822 0.029884
v 0.390345 0.497450 0.021847
v 0.145994 0.700558 0.020619
v 0.248639 0.796103 0.017803
v 0.365122 0.827904 0.012516
v 0.328221 0.652840 0.015275
v 0.117034 0.631058 0.026614
v 1.153970 0.350327 0.015724
v 1.245499 0.337284 0.012266
v 1.205860 0.380946 0.010847
v 1.246080 0.385963 0.007465
v 1.243395 0.365656 0.009149
v 1.181651 0.370022 0.012352
v 0.771368 0.152998 0.154329
v 0.771368 0.130165 0.147475
v 0.879942 0.157556 0.132005
v 0.878767 0.147239 0.127004
v 0.811367 0.123550 0.193180
v 0.811367 0.111489 0.189313
v 0.866908 0.137507 0.161213
v 0.866908 0.132076 0.157520
v 0.839386 0.111688 0.206246
v 0.839386 0.104815 0.203175
v 0.885234 0.117109 0.193200
v 0.886511 0.111533 0.194388
v -0.769923 0.111392 0.122978
v -0.658120 0.129771 0.192998
v -0.625577 0.062266 0.158118
v -0.701244 0.119645 0.171898
v -0.560937 0.370421 0.151677
v -0.554987 0.206433 0.218155
v -0.544957 0.125600 0.202126
v -0.784207 0.119661 0.071393
v -0.782870 0.142977 0.082963
v -0.785046 0.119661 0.069864
v -0.794091 0.142977 0.062526
v -0.783190 0.119661 0.070835
v -0.774145 0.142977 0.078173
v -0.784029 0.119661 0.069306
v -0.785366 0.142977 0.057735
v -0.770764 0.123425 0.108483
v -0.769609 0.144888 0.119143
v -0.771526 0.123425 0.107070
v -0.779805 0.144888 0.100256
v -0.769824 0.123425 0.107976
v -0.761546 0.144888 0.114790
v -0.770586 0.123425 0.106563
v -0.771741 0.144888 0.095903
v -0.744848 0.123300 0.133466
v -0.740041 0.144763 0.143050
v -0.746057 0.123300 0.132409
v -0.756195 0.144763 0.128918
v -0.744145 0.123300 0.132662
v -0.734007 0.144763 0.136153
v -0.745354 0.123300 0.131605
v -0.750161 0.144763 0.122021
v -0.718746 0.125742 0.156392
v -0.706940 0.150570 0.160192
v -0.720599 0.125742 0.156533
v -0.731697 0.150570 0.162070
v -0.718840 0.125742 0.155160
v -0.707742 0.150570 0.149622
v -0.720692 0.125742 0.155301
v -0.732499 0.150570 0.151500
v -0.787476 0.112767 0.018783
v -0.789632 0.142374 0.033416
v -0.788004 0.112767 0.016632
v -0.796692 0.142374 0.004663
v -0.786045 0.112767 0.018432
v -0.777357 0.142374 0.030401
v -0.786573 0.112767 0.016281
v -0.784416 0.142374 0.001649
v -0.717650 0.131032 0.143827
v -0.729281 0.108576 0.137526
v -0.716002 0.130862 0.144375
v -0.707261 0.106314 0.144846
v -0.717269 0.131355 0.142780
v -0.726010 0.111352 0.128543
v -0.715621 0.131186 0.143328
v -0.703990 0.109090 0.135863
v -0.747434 0.129348 0.103357
v -0.756491 0.107885 0.097619
v -0.746502 0.129348 0.104665
v -0.744038 0.107885 0.115100
v -0.746564 0.129348 0.102737
v -0.749028 0.107885 0.092302
v -0.745632 0.129348 0.104045
v -0.736575 0.107885 0.109783
v -0.752034 0.129092 0.068662
v -0.758515 0.107629 0.060120
v -0.751619 0.129092 0.070213
v -0.752957 0.107629 0.080851
v -0.751003 0.129092 0.068385
v -0.749664 0.107629 0.057747
v -0.750587 0.129092 0.069936
v -0.744106 0.107629 0.078478
v -0.762415 0.130299 0.033594
v -0.760618 0.105471 0.021322
v -0.763358 0.130299 0.035194
v -0.773223 0.105471 0.042712
v -0.761351 0.130299 0.034221
v -0.751485 0.105471 0.026704
v -0.762294 0.130299 0.035821
v -0.764091 0.105471 0.048094
v -0.683188 0.133344 0.158143
v -0.694278 0.110028 0.154585
v -0.681851 0.133344 0.159263
v -0.676409 0.110028 0.169562
v -0.682442 0.133344 0.157254
v -0.687884 0.110028 0.146956
v -0.681105 0.133344 0.158374
v -0.670015 0.110028 0.161933
v -0.712391 0.280622 0.142182
v -0.701083 0.263880 0.143184
v -0.701083 0.244443 0.148786
v -0.712391 0.229736 0.156849
v -0.719379 0.286579 0.162849
v -0.712391 0.273519 0.176624
v -0.712391 0.254082 0.182227
v -0.719379 0.235693 0.177516
v -0.730687 0.225376 0.164292
v -0.730687 0.288275 0.146163
v -0.741995 0.286579 0.162849
v -0.748984 0.273519 0.176624
v -0.748984 0.254082 0.182227
v -0.741995 0.235693 0.177516
v -0.748984 0.280622 0.142182
v -0.760292 0.263880 0.143184
v -0.760292 0.244443 0.148786
v -0.748984 0.229736 0.156849
v 0.225722 0.006988 0.000000
v -0.231637 0.431579 -0.175995
v -0.203478 0.042722 -0.207338
v 0.114463 0.042509 -0.226652
v 0.225722 0.439436 -0.175923
v -0.431794 0.402571 -0.162907
v -0.431794 0.048033 -0.192801
v -0.431794 0.015336 0.000000
v -0.231637 0.519481 0.000000
v -0.431794 0.467177 0.000000
v -0.231637 0.000807 0.000000
v 0.446219 0.489777 0.000000
v 0.446219 0.034707 0.000000
v 0.446219 0.076781 -0.182952
v 0.446219 0.402897 -0.147337
v 0.698047 0.439734 0.000000
v 0.698047 0.089593 0.000000
v 0.698047 0.112254 -0.146453
v 0.698047 0.352854 -0.108574
v 0.985391 0.380005 0.000000
v 0.985391 0.123948 0.000000
v 0.985391 0.150323 -0.106629
v 0.985391 0.325284 -0.091174
v 1.290491 0.335267 0.000000
v 1.290491 0.162464 0.000000
v 1.290491 0.192295 -0.071387
v 1.290491 0.299291 -0.079646
v 1.476134 0.305656 0.000000
v 1.476134 0.191021 0.000000
v 1.476134 0.195302 -0.058681
v 1.476134 0.294448 -0.070110
v -0.738929 0.055334 0.000000
v -0.693768 0.067275 -0.113261
v -0.690080 0.338271 -0.140447
v -0.690080 0.388077 0.000000
v -0.903122 0.165987 0.000000
v -0.903122 0.171322 -0.056486
v -0.946752 0.273302 -0.047549
v -0.946752 0.283148 0.000000
v -0.975479 0.208650 0.000000
v -0.977511 0.214004 -0.018563
v -0.976138 0.263363 -0.026512
v -0.973408 0.270419 0.000000
v 1.559277 0.327081 0.000000
v 1.559277 0.153912 0.000000
v 1.559277 0.161756 -0.058314
v 1.559277 0.317617 -0.058314
v 1.772274 0.491873 0.000000
v 1.772274 -0.093836 0.000000
v 1.772274 -0.085992 -0.023461
v 1.772274 0.482409 -0.023461
v 1.809492 0.519495 0.000000
v 1.801421 -0.114912 0.000000
v 1.801421 -0.107068 -0.021386
v 1.809492 0.510032 -0.021386
v 1.802595 0.047851 0.000000
v 1.799220 0.047851 -0.021386
v 1.772274 0.215335 -0.030572
v 2.005862 0.606756 -0.009716
v 1.814335 0.367068 -0.021386
v 2.005862 0.606756 0.000000
v 1.817710 0.367068 0.000000
v 1.775649 0.215335 0.000000
v -0.431794 0.209503 -0.233396
v -0.231637 0.229719 -0.252189
v 0.176682 0.244498 -0.250260
v 0.446219 0.262242 -0.225809
v 0.698047 0.264663 -0.180397
v 0.985391 0.258206 -0.138228
v 1.290491 0.249328 -0.100601
v 1.476134 0.245292 -0.070110
v -0.678180 0.203362 -0.202913
v -0.946752 0.231571 -0.056486
v -0.984275 0.236690 -0.029099
v -0.992647 0.244664 0.000000
v 1.559277 0.239687 -0.065426
v 1.944519 0.476706 -0.015303
v 1.947895 0.476706 0.000000
v 1.950389 -0.159620 0.000000
v 1.922699 -0.177610 0.000000
v 1.950389 -0.159620 -0.015303
v 1.922699 -0.177610 -0.017154
v -0.818416 0.335612 0.000000
v -0.818416 0.315968 -0.124736
v -0.834855 0.142710 -0.127567
v -0.840386 0.138050 0.000000
v -0.818416 0.226324 -0.149535
v 0.000000 0.038056 -0.226136
v 0.000000 0.000000 0.000000
v 0.000000 0.545810 0.000000
v 0.000000 0.447290 -0.177179
v 0.000000 0.236106 -0.253998
v -0.203478 0.094103 -0.219248
v 0.114463 0.110222 -0.241858
v 0.446219 0.164823 -0.201520
v 0.698047 0.189673 -0.171271
v 0.985391 0.199014 -0.133848
v 1.290491 0.215561 -0.097413
v 1.476134 0.220714 -0.070110
v -0.764164 0.135688 0.000000
v -0.994150 0.226768 0.000000
v -0.431794 0.121428 -0.211253
v -0.683482 0.136851 -0.187311
v -0.946752 0.205782 -0.056486
v -0.981767 0.222531 -0.028518
v -0.827505 0.172350 -0.138551
v -0.761341 0.140271 -0.157439
v 0.000000 0.136124 -0.230536
v -0.003142 -0.084827 -0.570536
v 0.168412 -0.092691 -0.640063
v -0.125199 -0.010831 -0.468641
v -0.131751 -0.044065 -0.471014
v 0.175428 -0.066983 -0.637546
v 0.006206 -0.054407 -0.567115
v -0.168514 0.043583 -0.348650
v 0.003103 0.034562 -0.458147
v 0.079503 0.031565 -0.437101
v 0.081533 -0.001091 -0.440173
v 0.003103 -0.017306 -0.434684
v -0.182615 0.000517 -0.353756
v 0.056311 0.535429 -0.038202
v 0.225284 0.528213 -0.046562
v 0.207575 0.649822 -0.029884
v 0.390345 0.502069 0.000000
v 0.390345 0.497450 -0.021847
v 0.056311 0.544015 0.000000
v 0.145994 0.700558 -0.020619
v 0.248639 0.796103 -0.017803
v 0.248639 0.820829 0.000000
v 0.365122 0.850329 0.000000
v 0.365122 0.827904 -0.012516
v 0.145994 0.725988 0.000000
v 0.339431 0.652034 0.000000
v 0.328221 0.652840 -0.015275
v 0.117034 0.631058 -0.026614
v 0.102088 0.639191 0.000000
v 1.153970 0.357443 0.000000
v 1.153970 0.350327 -0.015724
v 1.245499 0.344022 0.000000
v 1.245499 0.337284 -0.012266
v 1.208050 0.393046 0.000000
v 1.205860 0.380946 -0.010847
v 1.246080 0.397915 0.000000
v 1.246080 0.385963 -0.007465
v 1.246522 0.362900 0.000000
v 1.243395 0.365656 -0.009149
v 1.181651 0.370022 -0.012352
v 1.177576 0.377252 0.000000
v 0.771368 0.152998 -0.154329
v 0.771368 0.130165 -0.147475
v 0.879942 0.157556 -0.132005
v 0.878767 0.147239 -0.127004
v 0.811367 0.123550 -0.193180
v 0.811367 0.111489 -0.189313
v 0.866908 0.137507 -0.161213
v 0.866908 0.132076 -0.157520
v 0.839386 0.111688 -0.206246
v 0.839386 0.104815 -0.203175
v 0.885234 0.117109 -0.193200
v 0.886511 0.111533 -0.194388
v -0.769923 0.111392 -0.122978
v -0.658120 0.129771 -0.192998
v -0.788500 0.102833 0.000000
v -0.683598 0.140663 0.000000
v -0.658120 0.133187 0.000000
v -0.591129 0.031273 0.000000
v -0.625577 0.062266 -0.158118
v -0.701244 0.119645 -0.171898
v -0.713207 0.122319 0.000000
v -0.560937 0.427627 0.000000
v -0.560937 0.370421 -0.151677
v -0.554987 0.206433 -0.218155
v -0.544957 0.125600 -0.202126
v -0.784207 0.119661 -0.071393
v -0.782870 0.142977 -0.082963
v -0.785046 0.119661 -0.069864
v -0.794091 0.142977 -0.062526
v -0.783190 0.119661 -0.070835
v -0.774145 0.142977 -0.078173
v -0.784029 0.119661 -0.069306
v -0.785366 0.142977 -0.057735
v -0.770764 0.123425 -0.108483
v -0.769609 0.144888 -0.119143
v -0.771526 0.123425 -0.107070
v -0.779805 0.144888 -0.100256
v -0.769824 0.123425 -0.107976
v -0.761546 0.144888 -0.114790
v -0.770586 0.123425 -0.106563
v -0.771741 0.144888 -0.095903
v -0.744848 0.123300 -0.133466
v -0.740041 0.144763 -0.143050
v -0.746057 0.123300 -0.132409
v -0.756195 0.144763 -0.128918
v -0.744145 0.123300 -0.132662
v -0.734007 0.144763 -0.136153
v -0.745354 0.123300 -0.131605
v -0.750161 0.144763 -0.122021
v -0.718746 0.125742 -0.156392
v -0.706940 0.150570 -0.160192
v -0.720599 0.125742 -0.156533
v -0.731697 0.150570 -0.162070
v -0.718840 0.125742 -0.155160
v -0.707742 0.150570 -0.149622
v -0.720692 0.125742 -0.155301
v -0.732499 0.150570 -0.151500
v -0.780054 0.118659 -0.027562
v -0.781353 0.136482 -0.036371
v -0.780372 0.118659 -0.026267
v -0.785603 0.136482 -0.019061
v -0.779193 0.118659 -0.027351
v -0.773963 0.136482 -0.034556
v -0.779511 0.118659 -0.026055
v -0.778213 0.136482 -0.017247
v -0.717650 0.131032 -0.143827
v -0.729281 0.108576 -0.137526
v -0.716002 0.130862 -0.144375
v -0.707261 0.106314 -0.144846
v -0.717269 0.131355 -0.142780
v -0.726010 0.111352 -0.128543
v -0.715621 0.131186 -0.143328
v -0.703990 0.109090 -0.135863
v -0.747434 0.129348 -0.103357
v -0.756491 0.107885 -0.097619
v -0.746502 0.129348 -0.104665
v -0.744038 0.107885 -0.115100
v -0.746564 0.129348 -0.102737
v -0.749028 0.107885 -0.092302
v -0.745632 0.129348 -0.104045
v -0.736575 0.107885 -0.109783
v -0.752034 0.129092 -0.068662
v -0.758515 0.107629 -0.060120
v -0.751619 0.129092 -0.070213
v -0.752957 0.107629 -0.080851
v -0.751003 0.129092 -0.068385
v -0.749664 0.107629 -0.057747
v -0.750587 0.129092 -0.069936
v -0.744106 0.107629 -0.078478
v -0.780393 0.121163 -0.017512
v -0.765836 0.104163 -0.006478
v -0.781075 0.120659 -0.018950
v -0.772100 0.099539 -0.019690
v -0.779623 0.121731 -0.018075
v -0.759230 0.109039 -0.011317
v -0.780305 0.121228 -0.019514
v -0.768348 0.102309 -0.030548
v -0.683188 0.133344 -0.158143
v -0.694278 0.110028 -0.154585
v -0.681851 0.133344 -0.159263
v -0.676409 0.110028 -0.169562
v -0.682442 0.133344 -0.157254
v -0.687884 0.110028 -0.146956
v -0.681105 0.133344 -0.158374
v -0.670015 0.110028 -0.161933
v -0.712391 0.280622 -0.142182
v -0.701083 0.263880 -0.143184
v -0.701083 0.244443 -0.148786
v -0.712391 0.229736 -0.156849
v -0.719379 0.286579 -0.162849
v -0.712391 0.273519 -0.176624
v -0.712391 0.254082 -0.182227
v -0.719379 0.235693 -0.177516
v -0.730687 0.225376 -0.164292
v -0.730687 0.288275 -0.146163
v -0.741995 0.286579 -0.162849
v -0.748984 0.273519 -0.176624
v -0.748984 0.254082 -0.182227
v -0.741995 0.235693 -0.177516
v -0.748984 0.280622 -0.142182
v -0.760292 0.263880 -0.143184
v -0.760292 0.244443 -0.148786
v -0.748984 0.229736 -0.156849
v 1.517706 0.172467 0.000000
v 1.517706 0.178946 0.064212
v 1.517706 0.178946 -0.064212
vn -0.1948 0.8944 0.4025
vn -0.1167 0.3458 0.9310
vn -0.0518 -0.9811 0.1866
vn -0.1357 0.8871 0.4411
vn 0.0329 -0.9852 0.1682
vn -0.0529 0.8464 0.5299
vn 0.0218 0.8326 0.5535
vn 0.1504 -0.2095 0.9662
vn 0.1259 -0.9679 0.2175
vn 0.1528 -0.2899 0.9448
vn 0.1566 -0.2505 0.9554
vn 0.1867 -0.9640 0.1894
vn 0.2033 0.8100 0.5500
vn 0.1051 0.8608 0.4979
vn 0.1356 -0.9727 0.1885
vn 0.1400 0.8078 0.5726
vn 0.0983 -0.6069 0.7887
vn 0.1498 -0.5881 0.7948
vn 0.1417 -0.9440 0.2980
vn -0.3863 -0.9161 0.1071
vn 0.0905 -0.9633 0.2526
vn 0.0958 0.9494 0.2991
vn -0.3841 0.9100 0.1558
vn -0.1492 0.3842 0.9111
vn -0.2657 0.9052 0.3316
vn -0.1643 -0.9733 0.1605
vn -0.4236 -0.9037 0.0618
vn -0.5436 0.2528 0.8004
vn -0.8620 0.4605 0.2119
vn -0.6349 0.2899 0.7161
vn -0.4277 0.8846 0.1861
vn -0.5203 -0.8473 0.1066
vn -0.5924 0.7849 0.1817
vn -0.2457 0.9570 0.1540
vn -0.0853 -0.2221 0.9713
vn 0.1491 -0.0147 0.9887
vn 0.1483 0.0407 0.9881
vn -0.7480 -0.6518 0.1251
vn 0.0476 0.0106 0.9988
vn -0.5571 -0.7839 0.2742
vn -0.5583 0.7644 0.3226
vn 0.9571 -0.2616 0.1244
vn 0.0996 0.0184 0.9949
vn 0.8096 0.5822 0.0745
vn 0.9798 0.1541 0.1273
vn 0.0927 0.0556 0.9941
vn -0.6800 -0.2186 0.6998
vn -0.9426 -0.0356 0.3320
vn -0.5709 -0.1291 0.8108
vn -0.1166 -0.1857 0.9757
vn 0.0979 0.5000 0.8605
vn 0.1098 0.2056 0.9725
vn 0.1882 0.5391 0.8209
vn 0.1175 0.6037 0.7885
vn 0.1138 0.3979 0.9103
vn 0.0112 0.3476 0.9376
vn -0.0645 -0.2463 0.9671
vn 0.1382 -0.0371 0.9897
vn 0.9031 -0.4117 0.1219
vn 0.6413 -0.7582 0.1180
vn -0.4024 0.8758 0.2665
vn 0.5448 -0.8386 -0.0000
vn -0.4716 -0.8641 0.1759
vn 0.0424 0.0045 0.9991
vn -0.3627 -0.1593 0.9182
vn -0.2334 0.3415 0.9105
vn -0.5631 -0.7963 0.2210
vn -0.2850 0.9273 0.2428
vn -0.0226 0.3473 0.9375
vn -0.2383 0.8006 0.5497
vn -0.0203 -0.9830 0.1827
vn -0.0812 0.8814 0.4653
vn -0.0033 -0.2332 0.9724
vn -0.0647 -0.2359 0.9696
vn -0.2138 0.9766 0.0233
vn -0.6482 -0.4648 0.6031
vn -0.7137 -0.6788 0.1730
vn -0.5946 -0.7340 0.3282
vn 0.1211 -0.0805 0.9894
vn 0.1537 -0.0539 0.9866
vn 0.1559 -0.1879 0.9697
vn 0.1370 -0.0992 0.9856
vn 0.1259 -0.1717 0.9771
vn 0.0094 -1.0000 0.0022
vn -0.0334 -0.1260 0.9915
vn -0.3617 0.2018 0.9102
vn -0.5481 0.2106 0.8095
vn 0.1656 -0.8752 -0.4546
vn 0.8806 -0.1192 -0.4587
vn -0.8492 0.2741 0.4515
vn 0.0686 -0.9077 -0.4141
vn 0.0124 -0.9640 -0.2658
vn -0.9631 0.1267 0.2375
vn 0.9865 0.0001 0.1639
vn 0.1107 -0.9693 -0.2195
vn -0.2079 0.8917 0.4020
vn 0.1571 0.9042 0.3972
vn -0.7703 0.3788 0.5129
vn 0.0797 0.0267 0.9965
vn 0.2166 0.8146 0.5381
vn 0.2933 0.8409 0.4548
vn -0.4840 0.5322 0.6947
vn -0.1223 0.5368 0.8348
vn 0.9522 -0.1577 0.2614
vn -0.0638 0.1038 0.9925
vn -0.0505 0.1387 0.9890
vn 0.8914 0.3365 0.3037
vn 0.1472 0.1248 0.9812
vn -0.8213 0.4774 0.3125
vn 0.0641 0.0466 0.9969
vn 0.1039 0.8736 0.4755
vn 0.1537 0.8961 0.4164
vn -0.0425 0.6077 0.7930
vn -0.3307 0.7117 0.6198
vn 0.9855 -0.0349 0.1662
vn 0.9881 0.0325 0.1503
vn -0.5276 0.7230 0.4460
vn 0.0551 0.1048 0.9930
vn 0.0645 -0.8941 -0.4432
vn 0.0648 -0.3006 0.9515
vn 0.1750 -0.4745 0.8627
vn 0.2025 -0.6287 0.7508
vn 0.0736 0.8451 0.5295
vn -0.7520 -0.1936 0.6301
vn 0.0929 0.8224 0.5613
vn 0.9399 -0.2161 0.2643
vn 0.2419 -0.1208 0.9628
vn 0.9034 0.1921 -0.3834
vn 0.0341 -0.8670 -0.4972
vn -0.4919 -0.2995 0.8175
vn -0.3654 -0.2213 0.9042
vn -0.2733 -0.9618 -0.0182
vn -0.0387 -0.9987 0.0335
vn -0.0869 -0.2429 0.9662
vn -0.2037 -0.5251 0.8263
vn -0.3852 -0.7121 0.5869
vn -0.1892 0.9819 -0.0000
vn -0.1003 -0.9806 0.1681
vn -0.2648 0.8992 0.3482
vn -0.1461 0.3522 0.9245
vn -0.1010 -0.2250 0.9691
vn -0.8614 -0.1853 0.4729
vn -0.4368 -0.4198 -0.7956
vn 0.8614 -0.1853 -0.4729
vn 0.4368 -0.4198 0.7956
vn -0.0000 -1.0000 -0.0000
vn -0.8647 -0.1853 0.4668
vn -0.4311 -0.4198 -0.7987
vn 0.8647 -0.1853 -0.4668
vn 0.4311 -0.4198 0.7987
vn -0.6470 -0.1853 0.7396
vn -0.6831 -0.4198 -0.5976
vn 0.6470 -0.1853 -0.7396
vn 0.6831 -0.4198 0.5976
vn 0.0743 -0.1853 0.9799
vn -0.9050 -0.4198 0.0687
vn -0.0743 -0.1853 -0.9799
vn 0.9050 -0.4198 -0.0687
vn -0.9543 -0.1853 0.2343
vn -0.2164 -0.4198 -0.8814
vn 0.9543 -0.1853 -0.2343
vn 0.2164 -0.4198 0.8814
vn -0.3229 -0.0969 0.9415
vn 0.8572 0.3131 0.4089
vn 0.3229 0.4511 -0.8320
vn -0.8572 0.4892 -0.1610
vn -0.0000 0.9554 0.2952
vn -0.8004 0.1853 0.5702
vn 0.5266 0.4198 0.7392
vn 0.8004 0.1853 -0.5702
vn -0.5266 0.4198 -0.7392
vn -0.0000 1.0000 -0.0000
vn -0.9492 0.1853 0.2545
vn 0.2350 0.4198 0.8766
vn 0.9492 0.1853 -0.2545
vn -0.2350 0.4198 -0.8766
vn -0.8466 0.1853 -0.4989
vn -0.4608 0.4198 0.7819
vn 0.8466 0.1853 0.4989
vn 0.4608 0.4198 -0.7819
vn -0.6312 0.1853 0.7531
vn 0.6956 0.4198 0.5830
vn 0.6312 0.1853 -0.7531
vn -0.6956 0.4198 -0.5830
vn 0.9511 0.0856 0.2969
vn 0.3544 0.9236 -0.1463
vn 0.8199 -0.4131 0.3963
vn 0.8199 0.5607 0.1156
vn 0.3544 -0.8598 0.3677
vn -0.0000 0.2770 0.9609
vn -0.0000 0.9949 0.1011
vn -0.0000 -0.2481 0.9687
vn -0.0000 0.7257 0.6880
vn -0.0000 -0.7884 0.6151
vn -0.9511 0.0856 0.2969
vn -0.3544 0.9236 -0.1463
vn -0.8199 -0.4131 0.3963
vn -0.8199 0.5607 0.1156
vn -0.3545 -0.8598 0.3677
vn -0.1948 0.8944 -0.4025
vn -0.1167 0.3458 -0.9310
vn -0.0518 -0.9811 -0.1866
vn -0.1357 0.8871 -0.4411
vn 0.0329 -0.9852 -0.1682
vn -0.0529 0.8464 -0.5299
vn 0.0218 0.8326 -0.5535
vn 0.1504 -0.2095 -0.9662
vn 0.1259 -0.9679 -0.2175
vn 0.1528 -0.2899 -0.9448
vn 0.1566 -0.2505 -0.9554
vn 0.1867 -0.9640 -0.1894
vn 0.2033 0.8100 -0.5500
vn 0.1051 0.8608 -0.4979
vn 0.1356 -0.9727 -0.1885
vn 0.1400 0.8078 -0.5726
vn 0.0983 -0.6069 -0.7887
vn 0.1498 -0.5881 -0.7948
vn 0.1417 -0.9440 -0.2980
vn -0.3863 -0.9161 -0.1071
vn 0.0905 -0.9633 -0.2526
vn 0.0958 0.9494 -0.2991
vn -0.3841 0.9100 -0.1558
vn -0.1492 0.3842 -0.9111
vn -0.2657 0.9052 -0.3316
vn -0.1643 -0.9733 -0.1605
vn -0.4236 -0.9037 -0.0618
vn -0.5616 0.2058 -0.8014
vn -0.8620 0.4605 -0.2119
vn -0.5837 0.2019 -0.7864
vn -0.4277 0.8846 -0.1861
vn -0.5203 -0.8473 -0.1066
vn -0.5924 0.7849 -0.1817
vn -0.2457 0.9570 -0.1540
vn -0.0853 -0.2221 -0.9713
vn 0.1491 -0.0147 -0.9887
vn 0.1483 0.0407 -0.9881
vn -0.7480 -0.6518 -0.1251
vn 0.0476 0.0106 -0.9988
vn -0.5571 -0.7839 -0.2742
vn -0.5583 0.7644 -0.3226
vn 0.9571 -0.2616 -0.1244
vn 0.0996 0.0184 -0.9949
vn 0.8096 0.5822 -0.0745
vn 0.9798 0.1541 -0.1273
vn 0.0927 0.0556 -0.9941
vn -0.6154 -0.0501 -0.7866
vn -0.9426 -0.0356 -0.3320
vn -0.5816 -0.0456 -0.8122
vn -0.1166 -0.1857 -0.9757
vn 0.0979 0.5000 -0.8605
vn 0.1098 0.2056 -0.9725
vn 0.1882 0.5391 -0.8209
vn 0.1175 0.6037 -0.7885
vn 0.1138 0.3979 -0.9103
vn 0.0112 0.3476 -0.9376
vn -0.0645 -0.2463 -0.9671
vn 0.1382 -0.0371 -0.9897
vn 0.9031 -0.4117 -0.1219
vn 0.6413 -0.7582 -0.1180
vn -0.4024 0.8758 -0.2665
vn -0.4716 -0.8641 -0.1759
vn 0.0424 0.0045 -0.9991
vn -0.3627 -0.1593 -0.9182
vn -0.2334 0.3415 -0.9105
vn -0.5631 -0.7963 -0.2210
vn -0.2850 0.9273 -0.2428
vn -0.0226 0.3473 -0.9375
vn -0.2383 0.8006 -0.5497
vn -0.0203 -0.9830 -0.1827
vn -0.0812 0.8814 -0.4653
vn -0.0033 -0.2332 -0.9724
vn -0.0647 -0.2359 -0.9696
vn -0.2138 0.9766 -0.0233
vn -0.6466 -0.4690 -0.6016
vn -0.7137 -0.6788 -0.1730
vn -0.5944 -0.7368 -0.3223
vn 0.1211 -0.0805 -0.9894
vn 0.1537 -0.0539 -0.9866
vn 0.1559 -0.1879 -0.9697
vn 0.1370 -0.0992 -0.9856
vn 0.1259 -0.1717 -0.9771
vn 0.0094 -1.0000 -0.0022
vn -0.0334 -0.1260 -0.9915
vn -0.3617 0.2018 -0.9102
vn -0.5481 0.2106 -0.8095
vn 0.1656 -0.8752 0.4546
vn 0.8806 -0.1192 0.4587
vn -0.8492 0.2741 -0.4515
vn 0.0686 -0.9077 0.4141
vn 0.0124 -0.9640 0.2658
vn -0.9631 0.1267 -0.2375
vn 0.9865 0.0001 -0.1639
vn 0.1107 -0.9693 0.2195
vn -0.2079 0.8917 -0.4020
vn 0.1571 0.9042 -0.3972
vn -0.7703 0.3788 -0.5129
vn 0.0797 0.0267 -0.9965
vn 0.2166 0.8146 -0.5381
vn 0.2933 0.8409 -0.4548
vn -0.4840 0.5322 -0.6947
vn -0.1223 0.5368 -0.8348
vn 0.9522 -0.1577 -0.2614
vn -0.0638 0.1038 -0.9925
vn -0.0505 0.1387 -0.9890
vn 0.8914 0.3365 -0.3037
vn 0.1472 0.1248 -0.9812
vn -0.8213 0.4774 -0.3125
vn 0.0641 0.0466 -0.9969
vn 0.1039 0.8736 -0.4755
vn 0.1537 0.8961 -0.4164
vn -0.0425 0.6077 -0.7930
vn -0.3307 0.7117 -0.6198
vn 0.9855 -0.0349 -0.1662
vn 0.9881 0.0325 -0.1503
vn -0.5276 0.7230 -0.4460
vn 0.0551 0.1048 -0.9930
vn 0.0645 -0.8941 0.4432
vn 0.0648 -0.3006 -0.9515
vn 0.1750 -0.4745 -0.8627
vn 0.2025 -0.6287 -0.7508
vn 0.0736 0.8451 -0.5295
vn -0.7520 -0.1936 -0.6301
vn 0.0929 0.8224 -0.5613
vn 0.9399 -0.2161 -0.2643
vn 0.2419 -0.1208 -0.9628
vn 0.9034 0.1921 0.3834
vn 0.0341 -0.8670 0.4972
vn -0.4919 -0.2995 -0.8175
vn -0.3654 -0.2213 -0.9042
vn -0.2733 -0.9618 0.0182
vn -0.0387 -0.9987 -0.0335
vn -0.0869 -0.2429 -0.9662
vn -0.2037 -0.5251 -0.8263
vn -0.3852 -0.7121 -0.5869
vn -0.1003 -0.9806 -0.1681
vn -0.2648 0.8992 -0.3482
vn -0.1461 0.3522 -0.9245
vn -0.1010 -0.2250 -0.9691
vn -0.8614 -0.1853 -0.4729
vn -0.4368 -0.4198 0.7956
vn 0.8614 -0.1853 0.4729
vn 0.4368 -0.4198 -0.7956
vn -0.8647 -0.1853 -0.4668
vn -0.4311 -0.4198 0.7987
vn 0.8647 -0.1853 0.4668
vn 0.4311 -0.4198 -0.7987
vn -0.6470 -0.1853 -0.7396
vn -0.6831 -0.4198 0.5976
vn 0.6470 -0.1853 0.7396
vn 0.6831 -0.4198 -0.5976
vn 0.0743 -0.1853 -0.9799
vn -0.9050 -0.4198 -0.0687
vn -0.0743 -0.1853 0.9799
vn 0.9050 -0.4198 0.0687
vn -0.9543 -0.1853 -0.2343
vn -0.2164 -0.4198 0.8814
vn 0.9543 -0.1853 0.2343
vn 0.2164 -0.4198 -0.8814
vn -0.3229 -0.0969 -0.9415
vn 0.8572 0.3131 -0.4089
vn 0.3229 0.4511 0.8320
vn -0.8572 0.4892 0.1610
vn -0.0000 0.9554 -0.2952
vn -0.8004 0.1853 -0.5702
vn 0.5266 0.4198 -0.7392
vn 0.8004 0.1853 0.5702
vn -0.5266 0.4198 0.7392
vn -0.9492 0.1853 -0.2545
vn 0.2350 0.4198 -0.8766
vn 0.9492 0.1853 0.2545
vn -0.2350 0.4198 0.8766
vn -0.7912 -0.3537 0.4989
vn -0.8466 -0.3168 -0.4277
vn 0.5711 0.6519 -0.4989
vn 0.1214 0.6114 0.7819
vn -0.5939 0.8045 -0.0000
vn -0.6312 0.1853 -0.7531
vn 0.6956 0.4198 -0.5830
vn 0.6312 0.1853 0.7531
vn -0.6956 0.4198 0.5830
vn 0.9511 0.0856 -0.2969
vn 0.3544 0.9236 0.1463
vn 0.8199 -0.4131 -0.3963
vn 0.8199 0.5607 -0.1156
vn 0.3544 -0.8598 -0.3677
vn -0.0000 0.2770 -0.9609
vn -0.0000 0.9949 -0.1011
vn -0.0000 -0.2481 -0.9687
vn -0.0000 0.7257 -0.6880
vn -0.0000 -0.7884 -0.6151
vn -0.9511 0.0856 -0.2969
vn -0.3544 0.9236 0.1463
vn -0.8199 -0.4131 -0.3963
vn -0.8199 0.5607 -0.1156
vn -0.3545 -0.8598 -0.3677
vn 0.0718 -0.0690 0.9950
vn 0.0718 -0.0690 -0.9950
vn -0.3904 -0.9171 -0.0803
vn -0.3904 -0.9171 0.0803
vt 0.625000 0.625000
vt 0.875000 0.625000
vt 0.875000 0.750000
vt 0.617038 0.750000
vt 0.496099 0.750000
vt 0.625000 1.000000
vt 0.479458 1.000000
vt 0.125000 0.625000
vt 0.375000 0.625000
vt 0.380689 0.750000
vt 0.125000 0.750000
vt 0.625000 0.750000
vt 0.625000 0.668100
vt 0.375000 0.750000
vt 0.375000 0.625000
vt 0.375000 0.750000
vt 0.438613 0.750000
vt 0.437238 0.750000
vt 0.625000 0.750000
vt 0.415807 0.750000
vt 0.382165 0.743149
vt 0.437500 0.750000
vt 0.437500 0.746039
vt 0.445155 0.743676
vt 0.437500 0.746039
vt 0.388829 0.726479
vt 0.601799 0.750000
vt 0.375000 0.742078
vt 0.375000 0.742078
vt 0.375000 0.729624
vt 0.437500 0.750000
vt 0.588027 0.723962
vt 0.875000 0.733508
vt 0.875000 0.735165
vt 0.483017 1.000000
vt 0.486576 1.000000
vt 0.125000 0.734069
vt 0.125000 0.728463
vt 0.125000 0.628237
vt 0.125000 0.742653
vt 0.500000 1.000000
vt 0.608138 1.000000
vt 0.605495 1.000000
vt 0.500000 1.000000
vt 0.479975 -0.049074
vt 0.634209 -0.123841
vt 0.698078 0.033346
vt 0.534430 0.112859
vt 0.606395 1.000000
vt 0.875000 0.746742
vt 0.125000 0.751574
vt 0.500000 0.750000
vt 0.000000 0.000000
vt 0.500000 0.625000
vt 0.437500 1.000000
vt 0.402166 -0.099038
vt 0.437500 0.125000
vt 0.436003 1.000000
vt 0.427702 1.000000
vt 0.436176 1.000000
vt 0.432923 1.000000
vt 0.501629 0.750000
vt 0.499476 0.750000
vt 0.411337 0.750000
vt 0.422481 1.000000
vt 0.385777 1.000000
vt 0.375147 1.000000
vt 0.376090 1.000000
vt 0.384265 1.000000
vt 0.435549 0.750000
vt 0.375000 1.000000
vt 0.409170 1.000000
vt 0.410249 1.000000
vt 0.398727 1.000000
vt 0.358375 -0.068282
vt 0.321079 0.080223
vt 0.394683 1.000000
vt 0.435077 1.000000
vt 0.416902 1.000000
vt 0.414399 1.000000
vt 0.419656 0.750000
vt 0.425471 0.750000
vt 0.423925 0.750000
vt 0.422129 0.750000
vt 0.412427 0.750000
vt 0.625000 0.668100
vt 0.625000 0.660669
vt 0.589268 0.720641
vt 0.625046 0.624878
vt 0.388829 0.726480
vt 0.405703 0.744024
vt 0.422318 0.736704
vt 0.431614 0.739542
vt 0.435754 0.745564
vt 0.375983 0.740969
vt 0.417452 1.000000
vt 0.393720 1.000000
vt 0.382972 1.000000
vt 0.375000 0.000000
vt 0.625000 0.000000
vt 0.625000 0.250000
vt 0.375000 0.250000
vt 0.625000 0.500000
vt 0.375000 0.500000
vt 0.125000 0.500000
vt 0.400000 0.400000
vt 0.400000 0.600000
vt 0.200000 0.600000
vt 0.200000 0.400000
vt 0.400000 0.800000
vt 0.300000 1.000000
vt 0.200000 0.800000
vt 0.400000 0.200000
vt 0.200000 0.200000
vt 0.300000 0.000000
vt 0.000000 0.600000
vt 0.000000 0.400000
vt 0.100000 1.000000
vt 0.000000 0.800000
vt 0.000000 0.200000
vt 0.100000 0.000000
vt 1.000000 0.400000
vt 1.000000 0.600000
vt 0.800000 0.600000
vt 0.800000 0.400000
vt 1.000000 0.800000
vt 0.900000 1.000000
vt 0.800000 0.800000
vt 1.000000 0.200000
vt 0.800000 0.200000
vt 0.900000 0.000000
vt 0.608585 0.205902
s 0
usemtl Material
f 220/1/1 221/2/1 5/3/1 1/4/1
f 34/5/2 1/4/2 5/6/2 33/7/2
f 219/8/3 222/9/3 2/10/3 6/11/3
f 301/1/4 52/12/4 80/13/4 337/1/4
f 51/14/5 300/9/5 212/15/5 3/16/5
f 76/17/6 75/18/6 73/18/6 72/17/6
f 52/12/7 4/19/7 81/13/7 80/13/7
f 55/20/8 3/16/8 7/21/8 56/22/8
f 3/16/9 212/15/9 224/9/9 7/21/9
f 58/23/10 57/24/10 95/24/10 97/25/10
f 56/22/11 7/21/11 9/26/11 57/24/11
f 7/21/12 224/9/12 228/9/12 9/26/12
f 223/1/13 8/12/13 10/12/13 227/1/13
f 231/1/14 12/27/14 89/27/14 348/1/14
f 9/26/15 228/9/15 232/9/15 11/28/15
f 227/1/16 10/12/16 12/27/16 231/1/16
f 59/25/17 13/29/17 15/30/17 60/31/17
f 58/23/18 11/28/18 13/29/18 59/25/18
f 11/28/19 232/9/19 236/9/19 13/29/19
f 484/14/20 483/9/20 256/9/20 23/14/20
f 13/29/21 236/9/21 240/9/21 15/30/21
f 235/1/22 14/32/22 16/12/22 239/1/22
f 48/33/23 294/2/23 250/2/23 20/34/23
f 112/35/24 111/6/24 18/6/24 41/36/24
f 111/3/25 381/2/25 246/2/25 18/3/25
f 377/8/26 109/37/26 17/38/26 243/39/26
f 297/8/27 49/40/27 19/11/27 247/8/27
f 50/41/28 48/42/28 20/43/28 42/44/28
f 43/45/29 22/46/29 254/47/29 286/48/29
f 42/44/30 20/43/30 22/49/30 43/41/30
f 20/34/31 250/2/31 254/2/31 22/50/31
f 247/8/32 19/11/32 21/51/32 251/8/32
f 255/1/33 24/12/33 26/12/33 259/1/33
f 239/1/34 16/12/34 24/12/34 255/1/34
f 60/31/35 15/30/35 484/14/35 23/14/35
f 30/52/36 25/14/36 27/14/36 29/52/36
f 24/12/37 44/52/37 30/53/37 26/12/37
f 23/14/38 256/9/38 260/9/38 25/14/38
f 28/12/39 32/53/39 45/53/39 31/12/39
f 25/14/40 260/9/40 264/9/40 27/14/40
f 259/1/41 26/12/41 28/12/41 263/1/41
f 32/53/42 30/53/42 274/53/42 273/53/42
f 30/53/43 32/53/43 28/12/43 26/12/43
f 267/54/44 29/52/44 46/52/44 290/54/44
f 267/54/45 274/53/45 30/53/45 29/52/45
f 16/12/46 40/52/46 44/52/46 24/12/46
f 63/55/47 42/44/47 43/41/47 64/55/47
f 64/56/48 43/45/48 286/48/48 312/57/48
f 65/58/49 50/41/49 42/44/49 63/55/49
f 113/59/50 112/35/50 41/36/50 62/60/50 108/61/50
f 12/27/51 38/52/51 39/52/51 14/32/51
f 14/32/52 39/52/52 40/52/52 16/12/52
f 8/12/53 36/52/53 37/52/53 10/12/53
f 10/12/54 37/52/54 38/52/54 12/27/54
f 4/19/55 35/62/55 36/52/55 8/12/55
f 52/12/56 53/63/56 35/62/56 4/19/56
f 54/64/57 34/5/57 33/7/57 61/65/57
f 23/14/58 25/14/58 30/52/58 44/52/58
f 45/53/59 289/53/59 272/1/59 31/12/59
f 32/53/60 273/53/60 289/53/60 45/53/60
f 263/1/61 28/12/61 31/12/61 272/1/61
f 291/9/62 290/54/62 46/52/62 47/14/62
f 27/14/63 264/9/63 291/9/63 47/14/63
f 29/52/64 27/14/64 47/14/64 46/52/64
f 62/60/65 41/36/65 50/41/65 65/58/65
f 41/36/66 18/6/66 48/42/66 50/41/66
f 17/66/67 107/67/67 374/68/67 243/69/67
f 18/3/68 246/2/68 294/2/68 48/33/68
f 1/4/69 34/5/69 53/63/69 52/12/69
f 75/18/70 74/70/70 70/70/70 73/18/70
f 2/10/71 222/9/71 300/9/71 51/14/71
f 220/1/72 1/4/72 52/12/72 301/1/72
f 34/5/73 54/64/73 67/18/73 53/63/73
f 2/10/74 54/64/74 61/65/74 6/71/74
f 110/72/75 108/61/75 376/61/75 380/73/75
f 49/74/76 65/58/76 63/55/76 19/71/76
f 21/75/77 64/56/77 312/57/77 251/76/77
f 19/71/78 63/55/78 64/55/78 21/77/78
f 38/52/79 58/23/79 59/25/79 39/52/79
f 39/52/80 59/25/80 60/31/80 40/52/80
f 36/52/81 56/22/81 57/24/81 37/52/81
f 37/52/82 57/24/82 58/23/82 38/52/82
f 35/62/83 55/20/83 56/22/83 36/52/83
f 62/78/84 66/79/84 311/80/84 375/78/84
f 53/63/85 67/18/85 55/20/85 35/62/85
f 73/18/86 68/81/86 69/82/86 72/17/86
f 70/70/87 71/83/87 68/81/87 73/18/87
f 78/14/88 77/84/88 69/82/88 68/81/88
f 77/84/89 76/17/89 72/17/89 69/82/89
f 74/70/90 79/85/90 71/83/90 70/70/90
f 79/85/91 78/14/91 68/81/91 71/83/91
f 2/10/92 51/14/92 78/14/92 79/85/92
f 54/64/93 2/10/93 79/85/93 74/70/93
f 3/16/94 55/20/94 76/17/94 77/84/94
f 51/14/95 3/16/95 77/84/95 78/14/95
f 67/18/96 54/64/96 74/70/96 75/18/96
f 55/20/97 67/18/97 75/18/97 76/17/97
f 347/1/98 88/13/98 84/13/98 343/1/98
f 82/86/99 87/13/99 86/13/99 85/13/99
f 4/19/100 8/12/100 83/87/100 81/13/100
f 8/12/101 223/1/101 335/1/101 83/87/101
f 343/1/102 84/13/102 85/13/102 340/1/102
f 340/1/103 85/13/103 86/13/103 341/1/103
f 87/13/104 344/1/104 341/1/104 86/13/104
f 88/13/105 82/86/105 85/13/105 84/13/105
f 80/13/106 81/13/106 82/86/106 88/13/106
f 83/87/107 335/1/107 344/1/107 87/13/107
f 81/13/108 83/87/108 87/13/108 82/86/108
f 337/1/109 80/13/109 88/13/109 347/1/109
f 94/27/110 93/88/110 92/32/110 91/27/110
f 12/27/111 14/32/111 90/32/111 89/27/111
f 14/32/112 235/1/112 350/1/112 90/32/112
f 352/1/113 91/27/113 92/32/113 354/1/113
f 359/1/114 94/27/114 91/27/114 352/1/114
f 93/88/115 356/89/115 354/1/115 92/32/115
f 90/32/116 350/1/116 356/89/116 93/88/116
f 348/1/117 89/27/117 94/27/117 359/1/117
f 89/27/118 90/32/118 93/88/118 94/27/118
f 96/90/119 98/28/119 102/28/119 100/26/119
f 57/24/120 9/26/120 96/90/120 95/24/120
f 11/28/121 58/23/121 97/25/121 98/28/121
f 9/26/122 11/28/122 98/28/122 96/90/122
f 101/91/123 99/92/123 103/93/123 105/94/123
f 95/24/124 96/90/124 100/26/124 99/92/124
f 97/25/125 95/24/125 99/92/125 101/91/125
f 98/28/126 97/25/126 101/91/126 102/28/126
f 103/93/127 104/26/127 106/95/127 105/94/127
f 102/28/128 101/91/128 105/94/128 106/95/128
f 100/26/129 102/28/129 106/95/129 104/26/129
f 99/92/130 100/26/130 104/26/130 103/93/130
f 49/74/131 66/96/131 62/60/131 65/58/131
f 108/61/132 62/78/132 375/78/132 376/61/132
f 66/79/133 49/74/133 297/97/133 311/80/133
f 6/71/134 61/65/134 113/59/134 108/61/134
f 109/98/135 6/71/135 108/61/135 110/72/135
f 17/66/136 109/98/136 110/72/136 107/67/136
f 107/67/137 110/72/137 380/73/137 374/68/137
f 219/8/138 6/11/138 109/37/138 377/8/138
f 5/3/139 221/2/139 381/2/139 111/3/139
f 33/7/140 5/6/140 111/6/140 112/35/140
f 61/65/141 33/7/141 112/35/141 113/59/141
f 114/99/142 115/100/142 117/101/142 116/102/142
f 116/102/143 117/101/143 121/103/143 120/104/143
f 120/104/144 121/103/144 119/12/144 118/14/144
f 118/14/145 119/12/145 115/6/145 114/71/145
f 116/105/146 120/104/146 118/14/146 114/11/146
f 122/99/147 123/100/147 125/101/147 124/102/147
f 124/102/148 125/101/148 129/103/148 128/104/148
f 128/104/149 129/103/149 127/12/149 126/14/149
f 126/14/150 127/12/150 123/6/150 122/71/150
f 124/105/146 128/104/146 126/14/146 122/11/146
f 130/99/151 131/100/151 133/101/151 132/102/151
f 132/102/152 133/101/152 137/103/152 136/104/152
f 136/104/153 137/103/153 135/12/153 134/14/153
f 134/14/154 135/12/154 131/6/154 130/71/154
f 132/105/146 136/104/146 134/14/146 130/11/146
f 138/99/155 139/100/155 141/101/155 140/102/155
f 140/102/156 141/101/156 145/103/156 144/104/156
f 144/104/157 145/103/157 143/12/157 142/14/157
f 142/14/158 143/12/158 139/6/158 138/71/158
f 140/105/146 144/104/146 142/14/146 138/11/146
f 146/99/159 147/100/159 149/101/159 148/102/159
f 148/102/160 149/101/160 153/103/160 152/104/160
f 152/104/161 153/103/161 151/12/161 150/14/161
f 150/14/162 151/12/162 147/6/162 146/71/162
f 148/105/146 152/104/146 150/14/146 146/11/146
f 154/99/163 155/100/163 157/101/163 156/102/163
f 156/102/164 157/101/164 161/103/164 160/104/164
f 160/104/165 161/103/165 159/12/165 158/14/165
f 158/14/166 159/12/166 155/6/166 154/71/166
f 156/105/167 160/104/167 158/14/167 154/11/167
f 162/99/168 163/100/168 165/101/168 164/102/168
f 164/102/169 165/101/169 169/103/169 168/104/169
f 168/104/170 169/103/170 167/12/170 166/14/170
f 166/14/171 167/12/171 163/6/171 162/71/171
f 164/105/172 168/104/172 166/14/172 162/11/172
f 170/99/173 171/100/173 173/101/173 172/102/173
f 172/102/174 173/101/174 177/103/174 176/104/174
f 176/104/175 177/103/175 175/12/175 174/14/175
f 174/14/176 175/12/176 171/6/176 170/71/176
f 172/105/172 176/104/172 174/14/172 170/11/172
f 178/99/177 179/100/177 181/101/177 180/102/177
f 180/102/178 181/101/178 185/103/178 184/104/178
f 184/104/179 185/103/179 183/12/179 182/14/179
f 182/14/180 183/12/180 179/6/180 178/71/180
f 180/105/172 184/104/172 182/14/172 178/11/172
f 186/99/181 187/100/181 189/101/181 188/102/181
f 188/102/182 189/101/182 193/103/182 192/104/182
f 192/104/183 193/103/183 191/12/183 190/14/183
f 190/14/184 191/12/184 187/6/184 186/71/184
f 188/105/172 192/104/172 190/14/172 186/11/172
f 196/106/185 195/107/185 199/108/185 200/109/185
f 194/110/186 203/111/186 198/112/186
f 197/113/187 196/106/187 200/109/187 201/114/187
f 195/107/188 194/110/188 198/112/188 199/108/188
f 202/115/189 197/113/189 201/114/189
f 200/109/190 199/108/190 205/116/190 206/117/190
f 198/112/191 203/118/191 204/119/191
f 201/114/192 200/109/192 206/117/192 207/120/192
f 199/108/193 198/112/193 204/119/193 205/116/193
f 202/121/194 201/114/194 207/120/194
f 206/122/195 205/123/195 209/124/195 210/125/195
f 204/126/196 203/127/196 208/128/196
f 207/129/197 206/122/197 210/125/197 211/130/197
f 205/123/198 204/126/198 208/128/198 209/124/198
f 202/131/199 207/129/199 211/130/199
f 220/1/200 213/4/200 217/3/200 221/2/200
f 276/5/201 275/7/201 217/6/201 213/4/201
f 219/8/202 218/11/202 214/10/202 222/9/202
f 301/1/203 337/1/203 332/13/203 302/12/203
f 299/14/204 215/16/204 212/15/204 300/9/204
f 328/17/205 324/17/205 325/18/205 327/18/205
f 302/12/206 332/13/206 333/13/206 216/19/206
f 305/20/207 306/22/207 225/21/207 215/16/207
f 215/16/208 225/21/208 224/9/208 212/15/208
f 308/23/209 362/25/209 360/24/209 307/24/209
f 306/22/210 307/24/210 229/26/210 225/21/210
f 225/21/211 229/26/211 228/9/211 224/9/211
f 223/1/212 227/1/212 230/12/212 226/12/212
f 231/1/213 348/1/213 349/27/213 234/27/213
f 229/26/214 233/28/214 232/9/214 228/9/214
f 227/1/215 231/1/215 234/27/215 230/12/215
f 309/25/216 310/31/216 241/30/216 237/29/216
f 308/23/217 309/25/217 237/29/217 233/28/217
f 233/28/218 237/29/218 236/9/218 232/9/218
f 485/14/219 257/14/219 256/9/219 483/9/219
f 237/29/220 241/30/220 240/9/220 236/9/220
f 235/1/221 239/1/221 242/12/221 238/32/221
f 295/33/222 249/34/222 250/2/222 294/2/222
f 383/35/223 283/36/223 245/6/223 382/6/223
f 382/3/224 245/3/224 246/2/224 381/2/224
f 377/8/225 243/39/225 244/38/225 378/37/225
f 297/8/226 247/8/226 248/11/226 296/40/226
f 298/41/227 284/41/227 249/43/227 295/42/227
f 285/45/228 286/48/228 254/47/228 253/46/228
f 284/41/229 285/41/229 253/49/229 249/43/229
f 249/34/230 253/50/230 254/2/230 250/2/230
f 247/8/231 251/8/231 252/51/231 248/11/231
f 255/1/232 259/1/232 262/12/232 258/12/232
f 239/1/233 255/1/233 258/12/233 242/12/233
f 310/31/234 257/14/234 485/14/234 241/30/234
f 269/52/235 268/52/235 265/14/235 261/14/235
f 258/12/236 262/12/236 269/53/236 287/52/236
f 257/14/237 261/14/237 260/9/237 256/9/237
f 266/12/238 270/12/238 288/53/238 271/53/238
f 261/14/239 265/14/239 264/9/239 260/9/239
f 259/1/240 263/1/240 266/12/240 262/12/240
f 271/53/241 273/53/241 274/53/241 269/53/241
f 269/53/242 262/12/242 266/12/242 271/53/242
f 267/54/243 290/54/243 292/52/243 268/52/243
f 267/54/244 268/52/244 269/53/244 274/53/244
f 242/12/245 258/12/245 287/52/245 282/52/245
f 315/55/246 316/55/246 285/41/246 284/41/246
f 316/56/247 312/57/247 286/48/247 285/45/247
f 317/58/248 315/55/248 284/41/248 298/41/248
f 384/59/249 373/61/249 314/60/249 283/36/249 383/35/249
f 234/27/250 238/32/250 281/52/250 280/52/250
f 238/32/251 242/12/251 282/52/251 281/52/251
f 226/12/252 230/12/252 279/52/252 278/52/252
f 230/12/253 234/27/253 280/52/253 279/52/253
f 216/19/254 226/12/254 278/52/254 277/62/254
f 302/12/255 216/19/255 277/62/255 303/63/255
f 304/64/256 313/65/256 275/7/256 276/5/256
f 257/14/257 287/52/257 269/52/257 261/14/257
f 288/53/258 270/12/258 272/1/258 289/53/258
f 271/53/259 288/53/259 289/53/259 273/53/259
f 263/1/260 272/1/260 270/12/260 266/12/260
f 291/9/62 293/14/62 292/52/62 290/54/62
f 265/14/261 293/14/261 291/9/261 264/9/261
f 268/52/262 292/52/262 293/14/262 265/14/262
f 314/60/263 317/58/263 298/41/263 283/36/263
f 283/36/264 298/41/264 295/42/264 245/6/264
f 244/66/265 243/69/265 374/68/265 372/67/265
f 245/3/266 295/33/266 294/2/266 246/2/266
f 213/4/267 302/12/267 303/63/267 276/5/267
f 327/18/268 325/18/268 322/70/268 326/70/268
f 214/10/269 299/14/269 300/9/269 222/9/269
f 220/1/270 301/1/270 302/12/270 213/4/270
f 276/5/271 303/63/271 319/18/271 304/64/271
f 214/10/272 218/71/272 313/65/272 304/64/272
f 379/72/273 380/73/273 376/61/273 373/61/273
f 296/74/274 248/71/274 315/55/274 317/58/274
f 252/75/275 251/76/275 312/57/275 316/56/275
f 248/71/276 252/77/276 316/55/276 315/55/276
f 280/52/277 281/52/277 309/25/277 308/23/277
f 281/52/278 282/52/278 310/31/278 309/25/278
f 278/52/279 279/52/279 307/24/279 306/22/279
f 279/52/280 280/52/280 308/23/280 307/24/280
f 277/62/281 278/52/281 306/22/281 305/20/281
f 314/78/282 375/78/282 311/80/282 318/79/282
f 303/63/283 277/62/283 305/20/283 319/18/283
f 325/18/284 324/17/284 321/82/284 320/81/284
f 322/70/285 325/18/285 320/81/285 323/83/285
f 330/14/286 320/81/286 321/82/286 329/84/286
f 329/84/287 321/82/287 324/17/287 328/17/287
f 326/70/288 322/70/288 323/83/288 331/85/288
f 331/85/289 323/83/289 320/81/289 330/14/289
f 214/10/290 331/85/290 330/14/290 299/14/290
f 304/64/291 326/70/291 331/85/291 214/10/291
f 215/16/292 329/84/292 328/17/292 305/20/292
f 299/14/293 330/14/293 329/84/293 215/16/293
f 319/18/294 327/18/294 326/70/294 304/64/294
f 305/20/295 328/17/295 327/18/295 319/18/295
f 347/1/296 343/1/296 338/13/296 346/13/296
f 334/86/297 339/13/297 342/13/297 345/13/297
f 216/19/298 333/13/298 336/87/298 226/12/298
f 226/12/299 336/87/299 335/1/299 223/1/299
f 343/1/300 340/1/300 339/13/300 338/13/300
f 340/1/301 341/1/301 342/13/301 339/13/301
f 345/13/302 342/13/302 341/1/302 344/1/302
f 346/13/303 338/13/303 339/13/303 334/86/303
f 332/13/304 346/13/304 334/86/304 333/13/304
f 336/87/305 345/13/305 344/1/305 335/1/305
f 333/13/306 334/86/306 345/13/306 336/87/306
f 337/1/307 347/1/307 346/13/307 332/13/307
f 358/27/308 353/27/308 355/32/308 357/88/308
f 234/27/309 349/27/309 351/32/309 238/32/309
f 238/32/310 351/32/310 350/1/310 235/1/310
f 352/1/311 354/1/311 355/32/311 353/27/311
f 359/1/312 352/1/312 353/27/312 358/27/312
f 357/88/313 355/32/313 354/1/313 356/89/313
f 351/32/314 357/88/314 356/89/314 350/1/314
f 348/1/315 359/1/315 358/27/315 349/27/315
f 349/27/316 358/27/316 357/88/316 351/32/316
f 361/90/317 365/26/317 367/28/317 363/28/317
f 307/24/318 360/24/318 361/90/318 229/26/318
f 233/28/319 363/28/319 362/25/319 308/23/319
f 229/26/320 361/90/320 363/28/320 233/28/320
f 366/91/321 370/94/321 368/93/321 364/92/321
f 360/24/322 364/92/322 365/26/322 361/90/322
f 362/25/323 366/91/323 364/92/323 360/24/323
f 363/28/324 367/28/324 366/91/324 362/25/324
f 368/93/325 370/94/325 371/95/325 369/26/325
f 367/28/326 371/95/326 370/94/326 366/91/326
f 365/26/327 369/26/327 371/95/327 367/28/327
f 364/92/328 368/93/328 369/26/328 365/26/328
f 296/74/329 317/58/329 314/60/329 318/96/329
f 373/61/330 376/61/330 375/78/330 314/78/330
f 318/79/331 311/80/331 297/97/331 296/74/331
f 218/71/332 373/61/332 384/59/332 313/65/332
f 378/98/333 379/72/333 373/61/333 218/71/333
f 244/66/334 372/67/334 379/72/334 378/98/334
f 372/67/137 374/68/137 380/73/137 379/72/137
f 219/8/335 377/8/335 378/37/335 218/11/335
f 217/3/336 382/3/336 381/2/336 221/2/336
f 275/7/337 383/35/337 382/6/337 217/6/337
f 313/65/338 384/59/338 383/35/338 275/7/338
f 385/99/339 387/102/339 388/101/339 386/100/339
f 387/102/340 391/104/340 392/103/340 388/101/340
f 391/104/341 389/14/341 390/12/341 392/103/341
f 389/14/342 385/71/342 386/6/342 390/12/342
f 387/105/146 385/11/146 389/14/146 391/104/146
f 393/99/343 395/102/343 396/101/343 394/100/343
f 395/102/344 399/104/344 400/103/344 396/101/344
f 399/104/345 397/14/345 398/12/345 400/103/345
f 397/14/346 393/71/346 394/6/346 398/12/346
f 395/105/146 393/11/146 397/14/146 399/104/146
f 401/99/347 403/102/347 404/101/347 402/100/347
f 403/102/348 407/104/348 408/103/348 404/101/348
f 407/104/349 405/14/349 406/12/349 408/103/349
f 405/14/350 401/71/350 402/6/350 406/12/350
f 403/105/146 401/11/146 405/14/146 407/104/146
f 409/99/351 411/102/351 412/101/351 410/100/351
f 411/102/352 415/104/352 416/103/352 412/101/352
f 415/104/353 413/14/353 414/12/353 416/103/353
f 413/14/354 409/71/354 410/6/354 414/12/354
f 411/105/146 409/11/146 413/14/146 415/104/146
f 417/99/355 419/102/355 420/101/355 418/100/355
f 419/102/356 423/104/356 424/103/356 420/101/356
f 423/104/357 421/14/357 422/12/357 424/103/357
f 421/14/358 417/71/358 418/6/358 422/12/358
f 419/105/146 417/11/146 421/14/146 423/104/146
f 425/99/359 427/102/359 428/101/359 426/100/359
f 427/102/360 431/104/360 432/103/360 428/101/360
f 431/104/361 429/14/361 430/12/361 432/103/361
f 429/14/362 425/71/362 426/6/362 430/12/362
f 427/105/363 425/11/363 429/14/363 431/104/363
f 433/99/364 435/102/364 436/101/364 434/100/364
f 435/102/365 439/104/365 440/103/365 436/101/365
f 439/104/366 437/14/366 438/12/366 440/103/366
f 437/14/367 433/71/367 434/6/367 438/12/367
f 435/105/172 433/11/172 437/14/172 439/104/172
f 441/99/368 443/102/368 444/101/368 442/100/368
f 443/102/369 447/104/369 448/103/369 444/101/369
f 447/104/370 445/14/370 446/12/370 448/103/370
f 445/14/371 441/71/371 442/6/371 446/12/371
f 443/105/172 441/11/172 445/14/172 447/104/172
f 449/99/372 451/102/372 452/132/372 450/100/372
f 451/102/373 455/104/373 456/103/373 452/132/373
f 455/104/374 453/14/374 454/12/374 456/103/374
f 453/14/375 449/71/375 450/6/375 454/12/375
f 451/105/376 449/11/376 453/14/376 455/104/376
f 457/99/377 459/102/377 460/101/377 458/100/377
f 459/102/378 463/104/378 464/103/378 460/101/378
f 463/104/379 461/14/379 462/12/379 464/103/379
f 461/14/380 457/71/380 458/6/380 462/12/380
f 459/105/172 457/11/172 461/14/172 463/104/172
f 467/106/381 471/109/381 470/108/381 466/107/381
f 465/110/382 469/112/382 474/111/382
f 468/113/383 472/114/383 471/109/383 467/106/383
f 466/107/384 470/108/384 469/112/384 465/110/384
f 473/115/385 472/114/385 468/113/385
f 471/109/386 477/117/386 476/116/386 470/108/386
f 469/112/387 475/119/387 474/118/387
f 472/114/388 478/120/388 477/117/388 471/109/388
f 470/108/389 476/116/389 475/119/389 469/112/389
f 473/121/390 478/120/390 472/114/390
f 477/122/391 481/125/391 480/124/391 476/123/391
f 475/126/392 479/128/392 474/127/392
f 478/129/393 482/130/393 481/125/393 477/122/393
f 476/123/394 480/124/394 479/128/394 475/126/394
f 473/131/395 482/130/395 478/129/395
f 40/52/396 60/31/396 23/14/396 44/52/396
f 282/52/397 287/52/397 257/14/397 310/31/397
f 241/30/398 485/14/398 483/9/398 240/9/398
f 15/30/399 240/9/399 483/9/399 484/14/399
