# Moneda low-poly: disco de 8 lados, diametro 1, centrado en el origen
o moneda
v 0.5000 0.0000 -0.0700
v 0.3536 0.3536 -0.0700
v 0.0000 0.5000 -0.0700
v -0.3536 0.3536 -0.0700
v -0.5000 0.0000 -0.0700
v -0.3536 -0.3536 -0.0700
v -0.0000 -0.5000 -0.0700
v 0.3536 -0.3536 -0.0700
v 0.5000 0.0000 0.0700
v 0.3536 0.3536 0.0700
v 0.0000 0.5000 0.0700
v -0.3536 0.3536 0.0700
v -0.5000 0.0000 0.0700
v -0.3536 -0.3536 0.0700
v -0.0000 -0.5000 0.0700
v 0.3536 -0.3536 0.0700
v 0.0000 0.0000 -0.0700
v 0.0000 0.0000 0.0700
vt 0.5 0.5
vn -0.0000 -0.0000 -1.0000
vn 0.0000 0.0000 1.0000
vn 0.9239 0.3827 0.0000
vn 0.9239 0.3827 -0.0000
vn -0.0000 -0.0000 -1.0000
vn 0.0000 0.0000 1.0000
vn 0.3827 0.9239 0.0000
vn 0.3827 0.9239 -0.0000
vn -0.0000 0.0000 -1.0000
vn 0.0000 -0.0000 1.0000
vn -0.3827 0.9239 0.0000
vn -0.3827 0.9239 0.0000
vn -0.0000 -0.0000 -1.0000
vn 0.0000 0.0000 1.0000
vn -0.9239 0.3827 0.0000
vn -0.9239 0.3827 0.0000
vn -0.0000 -0.0000 -1.0000
vn 0.0000 0.0000 1.0000
vn -0.9239 -0.3827 0.0000
vn -0.9239 -0.3827 0.0000
vn -0.0000 -0.0000 -1.0000
vn 0.0000 0.0000 1.0000
vn -0.3827 -0.9239 0.0000
vn -0.3827 -0.9239 0.0000
vn -0.0000 -0.0000 -1.0000
vn 0.0000 0.0000 1.0000
vn 0.3827 -0.9239 0.0000
vn 0.3827 -0.9239 0.0000
vn 0.0000 -0.0000 -1.0000
vn -0.0000 0.0000 1.0000
vn 0.9239 -0.3827 0.0000
vn 0.9239 -0.3827 0.0000
f 17/1/1 2/1/1 1/1/1
f 18/1/2 9/1/2 10/1/2
f 1/1/3 2/1/3 10/1/3
f 1/1/4 10/1/4 9/1/4
f 17/1/5 3/1/5 2/1/5
f 18/1/6 10/1/6 11/1/6
f 2/1/7 3/1/7 11/1/7
f 2/1/8 11/1/8 10/1/8
f 17/1/9 4/1/9 3/1/9
f 18/1/10 11/1/10 12/1/10
f 3/1/11 4/1/11 12/1/11
f 3/1/12 12/1/12 11/1/12
f 17/1/13 5/1/13 4/1/13
f 18/1/14 12/1/14 13/1/14
f 4/1/15 5/1/15 13/1/15
f 4/1/16 13/1/16 12/1/16
f 17/1/17 6/1/17 5/1/17
f 18/1/18 13/1/18 14/1/18
f 5/1/19 6/1/19 14/1/19
f 5/1/20 14/1/20 13/1/20
f 17/1/21 7/1/21 6/1/21
f 18/1/22 14/1/22 15/1/22
f 6/1/23 7/1/23 15/1/23
f 6/1/24 15/1/24 14/1/24
f 17/1/25 8/1/25 7/1/25
f 18/1/26 15/1/26 16/1/26
f 7/1/27 8/1/27 16/1/27
f 7/1/28 16/1/28 15/1/28
f 17/1/29 1/1/29 8/1/29
f 18/1/30 16/1/30 9/1/30
f 8/1/31 1/1/31 9/1/31
f 8/1/32 9/1/32 16/1/32
